{"title":"The Brotherhood IV: The Complex (2005) DVD RIP Gay Intrest","uid":9492462,"size":849711322,"categoryP":"video","categoryS":"movies","magnet":"?xt=urn:btih:e632deb82b65bf187806cf5c4eb952af2c60c2c4&amp;dn=+The+Brotherhood+IV%3A+The+Complex+%282005%29+DVD+RIP+Gay+Intrest&amp;tr=udp%3A%2F%2Ftracker.openbittorrent.com%3A80&amp;tr=udp%3A%2F%2Fopen.demonii.com%3A1337&amp;tr=udp%3A%2F%2Ftracker.coppersurfer.tk%3A6969&amp;tr=udp%3A%2F%2Fexodus.desync.com%3A6969","seeders":2,"leechers":0,"uploader":null,"files":-1,"time":1390024692,"description":"From horror-meister David DeCoteau comes this creepy shocker about an age-old secret society's demonic plan to rule the world ... unless one man can stop it. Lee Hanlon (Sebastian Gacki), the smartest student at the elite military school the Complex, is intrigued by the academy's Black Skulls brotherhood but finds himself thrust into the role of global savior when he discovers their devilish origin. April Telek and Graham Kosakoski also star.\n\nPG-13, 1 hr. 32 min. \n\n &lt;a href=&quot;\nhttp://www.imdb.com/title/tt0445236/&quot; rel=&quot;nofollow&quot; target=&quot;_NEW&quot;&gt;\nhttp://www.imdb.com/title/tt0445236/&lt;/a&gt;\n\n\n\nFormat                                   : MPEG-4\nFormat profile                           : Base Media / Version 2\nCodec ID                                 : mp42\nFile size                                : 810 MiB\nDuration                                 : 1h 32mn\nOverall bit rate mode                    : Variable\nOverall bit rate                         : 1 227 Kbps\nEncoded date                             : UTC 2013-11-11 08:03:29\nTagged date                              : UTC 2013-11-11 09:19:44\nWriting application                      : HandBrake 0.9.9 2013052900\n\nVideo\nID                                       : 1\nFormat                                   : AVC\nFormat/Info                              : Advanced Video Codec\nFormat profile                           : &lt;a class=&quot;__cf_email__&quot; href=&quot;/cdn-cgi/l/email-protection&quot; data-cfemail=&quot;a0e8c9c7c8e0ec958e92&quot;&gt;[email&amp;#160;protected]&lt;/a&gt;&lt;script cf-hash='f9e31' type=&quot;text/javascript&quot;&gt;\n/* &lt;![CDATA[ */!function(){try{var t=&quot;currentScript&quot;in document?document.currentScript:function(){for(var t=document.getElementsByTagName(&quot;script&quot;),e=t.length;e--;)if(t[e].getAttribute(&quot;cf-hash&quot;))return t[e]}();if(t&amp;&amp;t.previousSibling){var e,r,n,i,c=t.previousSibling,a=c.getAttribute(&quot;data-cfemail&quot;);if(a){for(e=&quot;&quot;,r=parseInt(a.substr(0,2),16),n=2;a.length-n;n+=2)i=parseInt(a.substr(n,2),16)^r,e+=String.fromCharCode(i);e=document.createTextNode(e),c.parentNode.replaceChild(e,c)}}}catch(u){}}();/* ]]&gt; */&lt;/script&gt;\nFormat settings, CABAC                   : Yes\nFormat settings, ReFrames                : 5 frames\nCodec ID                                 : avc1\nCodec ID/Info                            : Advanced Video Coding\nDuration                                 : 1h 32mn\nBit rate                                 : 1 063 Kbps\nWidth                                    : 720 pixels\nHeight                                   : 574 pixels\nDisplay aspect ratio                     : 16:9\nFrame rate mode                          : Variable\nFrame rate                               : 25.000 fps\nMinimum frame rate                       : 16.667 fps\nMaximum frame rate                       : 25.000 fps\nColor space                              : YUV\nChroma subsampling                       : 4:2:0\nBit depth                                : 8 bits\nScan type                                : Progressive\nBits/(Pixel*Frame)                       : 0.103\nStream size                              : 702 MiB (87%)\nWriting library                          : x264 core 130 r2273 b3065e6\nEncoding settings                        : cabac=1 / ref=5 / deblock=1:0:0 / \nEncoded date                             : UTC 2013-11-11 08:03:29\nTagged date                              : UTC 2013-11-11 09:19:44\nColor primaries                          : BT.601 PAL\nTransfer characteristics                 : BT.709\nMatrix coefficients                      : BT.601\n\nAudio\nID                                       : 2\nFormat                                   : AAC\nFormat/Info                              : Advanced Audio Codec\nFormat profile                           : LC\nCodec ID                                 : 40\nDuration                                 : 1h 32mn\nBit rate mode                            : Variable\nBit rate                                 : 160 Kbps\nMaximum bit rate                         : 198 Kbps\nChannel(s)                               : 2 channels\nChannel positions                        : Front: L R\nSampling rate                            : 48.0 KHz\nCompression mode                         : Lossy\nStream size                              : 106 MiB (13%)\nLanguage                                 : English\nEncoded date                             : UTC 2013-11-11 08:03:29\nTagged date                              : UTC 2013-11-11 09:19:44","torrent":{"xt":"urn:btih:e632deb82b65bf187806cf5c4eb952af2c60c2c4","amp;dn":"+The+Brotherhood+IV%3A+The+Complex+%282005%29+DVD+RIP+Gay+Intrest","amp;tr":["udp%3A%2F%2Ftracker.openbittorrent.com%3A80","udp%3A%2F%2Fopen.demonii.com%3A1337","udp%3A%2F%2Ftracker.coppersurfer.tk%3A6969","udp%3A%2F%2Fexodus.desync.com%3A6969"],"infoHash":"e632deb82b65bf187806cf5c4eb952af2c60c2c4","infoHashBuffer":{"type":"Buffer","data":[230,50,222,184,43,101,191,24,120,6,207,92,78,185,82,175,44,96,194,196]},"announce":[],"urlList":[]}}